Patient4_TMGait_0pt7_02_left_49_EMG.mot
version=1
nRows=23
nColumns=33
inDegrees=no
endheader
time	1LAddLong	2LGlutMax	3LGlutMed	4LIliopsoas	5LSemiMemb	6LBicFemLong	7LRecFem	8LVastMed	9LVastLat	10LGasMed	11LTibAnt	12lTibPost	13LPeroneusLong	14LSol	15LExtDigLong	16LFlexDigLong	17RAddLong	18RGlutMax	19RGlutMed	20RIliopsoas	21RSemiMemb	22RBicFemLong	23RRecFem	24RVastMed	25RVastLat	26RGasMed	27RTibAnt	28RTibPost	29RPeroneusLong	30RSol	31RExtDigLong	32RFlexDigLong
56.91	0.000763	0.005646	0.10651	0.012512	0.045929	0.009766	-0.11536	0.009155	-0.079346	0.30182	-0.00061	-0.10056	0.00885	0.14923	0.014954	0.006866	0.048676	-0.051117	0.504	-0.083313	0.40878	0.012817	0.15686	-0.054626	0.065765	-0.012054	0.065155	-0.007935	0.18601	0.13336	-0.002289	-0.012817
56.911	0.00351	0.028381	0.11032	0.014191	-0.005798	0.051727	-0.13702	0.011292	-0.065613	0.085297	-0.007324	-0.015259	-0.009308	0.068054	0.005035	-0.11093	0.065002	-0.09079	0.37079	-0.007782	0.42465	0.049591	0.19867	-0.045013	0.054016	-0.015564	0.045929	-0.009308	0.19684	0.089417	0.001526	-0.011597
56.912	-0.003052	0.032043	0.089264	0.007477	-0.006409	0.038605	-0.14389	0.010986	-0.078583	-0.00824	-0.003815	0.018005	-0.058136	-0.13626	-0.010376	-0.096893	0.064697	0.073242	0.91507	0.09964	0.29831	0.09491	0.14847	0.067749	0.051422	-0.01709	0.023193	-0.011597	-0.27847	0.04837	-0.005798	-0.002289
56.913	-0.001678	0.026245	0.12894	0.007782	0.015564	0.042114	-0.17029	0.008545	-0.077515	-0.000458	0.003204	0.001984	-0.053864	-0.1445	-0.004272	-0.019989	-0.000305	0.20462	1.0149	0.22537	0.007172	0.20874	0.058289	0.070953	0.54077	-0.007324	-0.027313	-0.008545	0.16998	0.034943	-0.001984	-0.007477
56.914	0.003815	-0.003052	0.13916	-0.00473	0.013428	0.054626	-0.17441	0.00473	-0.079041	0.18982	0.003052	0.001831	-0.063019	0.07019	-0.002594	0.032806	-0.093842	0.27115	0.25345	0.1741	-0.26901	0.34058	-0.080109	0.044098	0.59113	0.002289	-0.051422	-0.004883	0.78049	-0.008392	-0.002289	-0.007019
56.915	0.002441	-0.006409	0.089722	-0.001068	0.005951	0.065613	-0.18387	0.009155	-0.079346	0.24262	0.011292	-0.018616	0.04715	0.12146	0.004578	-0.037079	-0.16266	0.15625	0.10727	0.079498	0.004425	0.38757	-0.13504	0.23346	0.30365	0.007324	-0.046387	-0.007935	0.616	-0.084991	-0.00824	-0.006104
56.916	-0.006104	-0.040283	0.09201	0.004425	-0.004883	0.08255	-0.19486	0.00946	-0.063477	0.14481	0.003204	-0.01236	0.065613	0	0.032196	-0.033264	-0.16968	-0.053711	-0.2771	-0.029297	0.30701	0.36743	-0.1622	0.3035	0.14023	0.000763	0.013123	-0.005798	0.32028	-0.027008	-0.003662	-0.010834
56.917	-0.007172	-0.036774	0.13443	0.001984	-0.002136	0.072937	-0.23178	0.007782	-0.052795	0.28686	0.005798	-0.010071	0.10712	-0.088654	0.024719	-0.029602	-0.062103	-0.25055	-0.47134	-0.009308	0.34027	0.24399	-0.22995	0.17136	-0.040741	0.002441	0.02594	-0.007019	-0.017548	-0.03418	-0.003204	0.008087
56.918	-0.010834	-0.047302	0.13489	-0.003052	-0.001984	0.063171	-0.21454	0.008545	-0.059509	0.4863	0.004272	0.012207	0.092316	0.053558	0.042877	-0.014343	-0.021362	-0.40634	-0.62088	-0.012207	0.46585	0.21698	-0.29633	-0.06546	-0.077972	-0.001068	0.013123	-0.001678	-0.30655	-0.064392	-0.000916	-0.00061
56.919	-0.000305	0.023193	0.11551	0.00351	-0.015564	0.14114	-0.23499	0.010529	-0.071411	-0.3746	0.00946	0.013428	0.024719	0.20508	0.056	-0.020447	0.020447	-0.55801	-0.40802	0.021362	0.36224	0.12299	-0.32181	-0.20538	-0.084229	-0.006256	-0.034943	-0.00946	-0.1973	-0.10483	-0.006561	0.004883
56.92	-0.001221	0.049744	0.10239	0.00946	-0.049133	0.094757	-0.22415	0.006866	-0.075378	-0.7605	0.003662	0.046844	-0.076904	0.1413	0.058746	-0.018768	0.092773	-0.51361	-0.24155	0.066986	0.26977	0.049286	-0.16815	-0.32974	-0.16815	0.000916	-0.10315	-0.007629	0.034637	-0.17242	0.000763	0.004578
56.921	-0.002136	0.004578	0.091248	0.023499	-0.031433	0.020905	-0.20218	-0.002289	-0.066833	-0.65811	-0.01297	-0.035858	-0.10742	0.052795	0.046844	0.043335	0.12116	-0.51315	-0.76904	-0.004578	0.22217	-0.010071	-0.19699	-0.37979	0.11993	0.006409	-0.10254	-0.010529	0.25406	-0.11826	0	0.010071
56.922	0.008545	0.005798	0.067749	0.027313	-0.003967	-0.080414	-0.22781	0.005798	-0.05249	-0.38376	-0.011902	0.019989	-0.15945	0.22507	0.02594	0.14221	0.078125	-0.4628	-0.53574	-0.058289	0.021667	-0.073853	-0.21668	-0.22201	0.30533	0.003662	0.15808	-0.013123	0.6366	0.0177	0	0.013733
56.923	0.013733	-0.03067	0.035553	0.006409	0.012512	-0.11108	-0.2269	0.003967	-0.061951	-0.23743	-0.002899	-0.083008	-0.19943	0.2771	-0.006714	-0.47516	0.10544	-0.48843	-0.68619	0.065308	0.17731	-0.14618	-0.08606	0.018463	0.19486	-0.009613	0.20721	-0.006409	0.74081	0.036316	-0.006409	-0.000916
56.924	0.038147	-0.047607	0.055847	0.008087	-0.006256	-0.11414	-0.21118	0.002136	-0.049896	0.11002	0.006104	0.039063	-0.13275	0.31082	-0.003052	0.088501	0.085602	-0.3949	-0.48798	0.096741	0.35523	-0.11643	0.078278	0.22461	-0.087891	-0.007782	0.090485	-0.001526	0.30777	-0.027924	-0.001984	-0.000763
56.925	0.040436	0.039978	0.064087	0.008545	-0.063171	-0.13138	-0.20035	0.000763	-0.057831	0.3006	-0.005646	0.098419	0.035706	0.2243	0.013428	0.10742	0.1236	-0.35889	-0.07431	0.14542	0.30258	0.039673	0.006561	0.28503	0.38086	0.000305	0.1265	-0.005493	-0.66452	-0.059967	-0.002136	-0.006561
56.926	0.019379	0.10025	0.028381	0.016174	-0.046539	-0.06424	-0.19486	0.002136	-0.064545	0.061035	-0.000916	0.08316	0.080872	-0.35858	-0.012665	0.041656	0.12634	-0.39642	0.17731	0.1207	0.25146	0.19775	0.043488	0.27374	0.62958	-0.005951	0.27115	-0.007172	-0.61142	-0.06485	-0.002594	-0.007629
56.927	0.014496	0.034637	0.026398	0.000305	-0.024719	0.054779	-0.19989	0.014954	-0.073242	-0.01709	0.002289	0.006256	0.067902	-0.58716	-0.013275	0.015869	0.056458	-0.37308	0.13275	0.093079	0.10452	0.24612	0.05249	0.73685	0.55985	-0.00885	0.39536	-0.010681	-0.22369	-0.05249	-0.002136	-0.012054
56.928	0.006714	0.065613	0.006866	-0.013733	-0.043335	0.14343	-0.20371	0.008087	-0.06897	0.52078	-0.007172	0.025787	0.001984	-0.3421	-0.003357	-0.001984	-0.004272	-0.35187	-0.69107	0.13153	-0.08667	0.2179	0.06073	0.70023	0.33386	-0.011292	0.56519	-0.011749	-0.1384	-0.083466	-0.003357	-0.001678
56.929	0.009613	0.079956	0.003815	0.017242	-0.02533	0.10712	-0.20203	0.002289	-0.048676	0.13611	-0.010376	0.022278	-0.019073	-0.072632	0.008392	-0.006409	-0.091858	-0.38757	-0.74829	0.006256	0.051727	0.24429	-0.02533	0.69839	0.081787	-0.011292	0.39841	-0.012512	-0.066071	-0.094147	-0.003967	-0.001526
56.93	0.023956	0.097198	0.012207	0.014954	0.001068	-0.002289	-0.2298	-0.006409	-0.031891	0.057831	-0.002594	0.01297	0.017395	0.037842	0.001221	0.004272	-0.12665	-0.3717	-0.058136	-0.075226	0.28153	0.23102	-0.14389	0.43182	-0.10895	-0.012054	-0.37064	-0.009155	0.13306	-0.13641	-0.003052	-0.001831
56.931	0.004272	0.062256	0.006714	0.016937	0.011444	-0.11856	-0.2385	-0.00946	-0.027771	0.35553	0.000763	0.005341	0.088654	0.014801	-0.009003	0.010071	-0.13275	-0.4184	0.72769	-0.096283	0.19714	0.11292	-0.2507	-0.052643	-0.16907	-0.004883	-0.35095	-0.00885	0.21774	-0.15686	-0.002441	-0.005951
56.932	0.014343	0.051575	0.007782	0.012207	0.002441	-0.13626	-0.20844	0.000458	-0.041504	0.55496	0.00351	0.00351	0.092773	0.009155	-0.005035	-0.007019	-0.12024	-0.38895	0.60623	-0.16373	0.015717	-0.008087	-0.21027	-0.41275	-0.32257	-0.003204	-0.23972	-0.009918	0.074921	-0.22598	-0.004272	-0.008545
